<?xml version="1.0" encoding="utf-8"?>
<!-- Generator: Adobe Illustrator 26.4.1, SVG Export Plug-In . SVG Version: 6.00 Build 0)  -->
<svg version="1.1" id="Layer_1" xmlns="http://www.w3.org/2000/svg" xmlns:xlink="http://www.w3.org/1999/xlink" x="0px" y="0px"
	 viewBox="0 0 800 800" style="enable-background:new 0 0 800 800;" xml:space="preserve">
<style type="text/css">
	.st0{fill:#AF15BC;}
</style>
<g id="SVGRepo_bgCarrier">
</g>
<g id="SVGRepo_tracerCarrier">
</g>
<path class="st0" d="M87,319c-3.4-20-4.2-39.4-1-60c1.7-10.8,13.5-79.5,74-121c68.3-46.9,170.7-39.9,207,6
	c17.9,22.6,18.1,52.4,31,53c13.2,0.6,16.3-30.2,37-55c37.7-45.2,125.5-60.6,191-25c46.2,25.1,65.1,66.8,70,78
	c21.1,48.2,12.4,92.4,6,123c-10.5,50-31.8,82.7-74,146c-55.9,83.8-94.8,120.5-162,184c-25,23.6-40.7,36.6-63,38
	c-39.1,2.4-66.7-33-114-88C156.1,443.4,101.9,406.1,87,319z"/>
<g id="SVGRepo_iconCarrier">
	<path d="M545.2,81.8c-56.8,0-109.9,25.7-145.2,68.7c-35.4-43.1-88.5-68.7-145.2-68.7C151,81.8,66.7,166.2,66.7,269.9
		c0,81.2,48.4,175.1,143.9,279.2c73.5,80.1,153.4,142.1,176.2,159.2l13.2,9.9l13.2-9.9c22.8-17.1,102.7-79.1,176.2-159.2
		c95.5-104,143.9-198,143.9-279.2C733.3,166.2,649,81.8,545.2,81.8z M557,519.4C496.6,585.2,431.5,638.5,400,663
		c-31.5-24.5-96.6-77.8-157-143.6C156.4,425,110.6,338.8,110.6,269.9c0-79.5,64.7-144.1,144.1-144.1c52.3,0,100.6,28.5,126,74.4
		l19.2,34.7l19.2-34.7c25.4-45.9,73.7-74.4,126-74.4c79.5,0,144.1,64.7,144.1,144.1C689.4,338.8,643.6,425,557,519.4z"/>
</g>
</svg>
