<?xml version="1.0" encoding="utf-8"?>
<!-- Generator: Adobe Illustrator 26.4.1, SVG Export Plug-In . SVG Version: 6.00 Build 0)  -->
<svg version="1.1" id="Layer_1" xmlns="http://www.w3.org/2000/svg" xmlns:xlink="http://www.w3.org/1999/xlink" x="0px" y="0px"
	 viewBox="0 0 100.2 100.2" style="enable-background:new 0 0 100.2 100.2;" xml:space="preserve">
<style type="text/css">
	.st0{fill:#FFD700;}
</style>
<g>
	<path class="st0" d="M65.6,6.7v26.1c0,0-6.6-3-15.7-2.3C40.8,31.1,33.2,34,33.2,34l1.1-26.5c0,0-16,8.7-20.2,20s-9,24-5.1,34.7
		S20.5,94,47.4,94.4s42.2-18.8,43.9-33.1s-2.6-31.7-7.6-37.9S65.6,6.7,65.6,6.7z"/>
	<path d="M66.3,4.6c-0.5-0.3-1-0.3-1.5,0C64.3,4.8,64,5.3,64,5.8v25.5c-4.5-1.5-9.2-2.3-14-2.3s-9.5,0.8-14,2.3V7.1
		c0-0.5-0.3-1-0.8-1.3c-0.5-0.3-1.1-0.2-1.5,0C15.5,17.3,6.6,32.5,6.6,52.4c0,24,19.4,43.5,43.3,43.5s43.3-19.5,43.3-43.5
		C93.3,31.7,84.4,16.1,66.3,4.6z M50,92.9c-22.2,0-40.3-18.2-40.3-40.5c0-17.9,7.6-31.8,23.4-42.5v23.3c0,0.2,0,0.4,0.1,0.5l0.1,0.2
		c0.1,0.4,0.4,0.7,0.8,0.8c0.4,0.2,0.8,0.2,1.2,0C39.8,32.9,44.8,32,50,32s10.2,1,14.9,2.9c0.5,0.2,1,0.1,1.4-0.1S67,34,67,33.5V8.7
		c15.6,10.8,23.3,25.1,23.3,43.8C90.3,74.8,72.2,92.9,50,92.9z"/>
	<path d="M39.3,54.7c0,0.8,0.7,1.5,1.5,1.5s1.5-0.7,1.5-1.5c0-4.1-3.6-7.5-8-7.5s-8,3.4-8,7.5c0,0.8,0.7,1.5,1.5,1.5
		s1.5-0.7,1.5-1.5c0-2.5,2.2-4.5,5-4.5S39.3,52.3,39.3,54.7z"/>
	<path d="M65.6,47.2c-4.4,0-8,3.4-8,7.5c0,0.8,0.7,1.5,1.5,1.5s1.5-0.7,1.5-1.5c0-2.5,2.2-4.5,5-4.5c2.8,0,5,2,5,4.5
		c0,0.8,0.7,1.5,1.5,1.5s1.5-0.7,1.5-1.5C73.6,50.6,70,47.2,65.6,47.2z"/>
	<path d="M65.8,70.9c-0.8,0-1.5,0.7-1.5,1.5c0,3.6-2.9,6.5-6.5,6.5c-3.5,0-6.3-2.7-6.5-6.2l5.4-8.2C57,64,57,63.4,56.8,63
		c-0.3-0.5-0.8-0.8-1.3-0.8h-12c-0.6,0-1.1,0.3-1.3,0.8c-0.3,0.5-0.2,1.1,0.1,1.5l5.4,8.2c-0.2,3.4-3,6.2-6.5,6.2
		c-3.6,0-6.5-2.9-6.5-6.5c0-0.8-0.7-1.5-1.5-1.5s-1.5,0.7-1.5,1.5c0,5.2,4.3,9.5,9.5,9.5c3.6,0,6.7-2,8.3-4.9
		c1.6,2.9,4.7,4.9,8.3,4.9c5.2,0,9.5-4.3,9.5-9.5C67.3,71.6,66.6,70.9,65.8,70.9z M52.7,65.2L49.5,70l-3.2-4.8H52.7z"/>
</g>
</svg>
